# xmcd CD database file
#
# Track frame offsets:
#	187
#	20277
#	46660
#	72665
#	92727
#	117262
#	136680
#	156942
#	181250
#	204580
#	227580
#	235510
#
# Disc length: 3482 seconds
#
# Revision: 0
# Processed by: cddbd v1.5PL3 Copyright (c) Steve Scherf et al.
# Submitted via: CDex 1.50
#
DISCID=920d980c
DTITLE=天野　清継 - YUMAN'S DANCE
DYEAR=1996
DGENRE=Instrumental
TTITLE0=WATTS
TTITLE1=EAST and WEST
TTITLE2=RIGHT FALL
TTITLE3=YUMAN'S DANCE
TTITLE4=WINDY EVENING
TTITLE5=WHERE IS LOVE
TTITLE6=DRAGON'S OIL
TTITLE7=CRAMELEON
TTITLE8=MIGHTYFROG
TTITLE9=A SEAL OF BAJKAL
TTITLE10=MR.ROPE
TTITLE11=EAGLE,S REST
EXTD=YEAR: 1996
EXTT0=
EXTT1=
EXTT2=
EXTT3=
EXTT4=
EXTT5=
EXTT6=
EXTT7=
EXTT8=
EXTT9=
EXTT10=
EXTT11=
PLAYORDER=
